<svg width="128" height="128" viewBox="0 0 128 128" fill="none" xmlns="http://www.w3.org/2000/svg">
<rect width="128" height="128" fill="#110517"/>
<rect x="25.17" y="33" width="77.66" height="62" fill="#110517"/>
<g clip-path="url(#clip0_2_81)">
<path d="M45.3077 91C42.5385 91 41.1539 89.6561 41.1539 86.9683V85.6244L42.7421 82.2036C48.8507 69.3348 53.2896 58.2172 56.0588 48.8507L57.0362 45.9186H53.1267C50.0317 45.9186 47.8326 46.0407 46.5294 46.2851C45.2263 46.5294 43.638 47.3032 41.7647 48.6063C40.8688 49.1765 39.9729 49.9095 39.0769 50.8054C38.181 51.7014 37.4073 52.5566 36.7557 53.371C36.1041 54.1855 35.7376 54.6742 35.6561 54.8371C35.4932 54.9186 34.8824 54.9593 33.8236 54.9593C32.276 54.9593 31.5023 54.552 31.5023 53.7376C31.5023 53.2489 32.276 51.8235 33.8236 49.4615C35.3711 47.0995 37.6109 44.5747 40.543 41.8869C43.4751 39.1991 46.3665 37.6516 49.2172 37.2443C49.7874 37.0814 58.9503 37 76.7059 37C89.7376 37 96.4163 37.0407 96.7421 37.1222C98.3711 37.6923 99.1855 38.8326 99.1855 40.543C99.1855 43.0679 97.8824 44.7783 95.276 45.6742C94.7874 45.8371 91.9774 45.9186 86.8462 45.9186H79.0272L78.6607 47.9955C77.6833 53.8597 77.1946 58.7059 77.1946 62.5339C77.1946 66.7692 77.5611 70.5566 78.2941 73.8959C79.0272 77.2353 79.8009 79.8416 80.6154 81.7149C81.4299 83.5882 81.8371 84.7285 81.8371 85.1357C81.8371 86.5204 81.267 87.8235 80.1267 89.0452C78.9865 90.267 77.5204 90.8778 75.7285 90.8778C74.8326 90.8778 74.0996 90.7557 73.5294 90.5113C72.9593 90.267 72.3077 89.2896 71.5747 87.5792C70.8417 85.8688 70.1901 83.4253 69.6199 80.2489C69.5385 79.5158 69.4978 77.724 69.4978 74.8733C69.4978 70.8824 69.8643 66.6063 70.5973 62.0452C71.3303 57.4842 72.0634 53.7376 72.7964 50.8054C73.5294 47.8733 73.9367 46.2443 74.0181 45.9186H62.0453L61.9231 46.4072C61.9231 46.6516 61.1493 49.8688 59.6018 56.0588C58.0543 62.2489 56.3032 68.8054 54.3484 75.7285C52.3937 82.6516 51.1312 86.6018 50.5611 87.5792C49.6652 89.8597 47.9141 91 45.3077 91Z" fill="#E0E0E0"/>
</g>
<defs>
<clipPath id="clip0_2_81">
<rect width="69.66" height="54" fill="white" transform="translate(29.17 37)"/>
</clipPath>
</defs>
</svg>
