<?xml version="1.0" encoding="UTF-8"?><svg id="Layer_1" xmlns="http://www.w3.org/2000/svg" width="128" height="128" viewBox="0 0 128 128"><defs><style>.cls-1{fill:#e0e0e0;}.cls-2{fill:#101010;}</style></defs><rect class="cls-2" width="128" height="128"/><path class="cls-1" d="m93.328,73.073c-.129.191-.574,4.08-1.344,11.664-.768,7.584-1.215,11.471-1.344,11.664v.383h-27.551c-18.562,0-27.937-.127-28.129-.383.063.129.032.064-.096-.193-.192-.383-.192-.734,0-1.055l1.536-1.824c1.023-1.152,2.559-2.881,4.608-5.185,2.047-2.304,3.999-4.512,5.856-6.624l11.809-13.439c-8.064-10.944-16.033-21.984-23.905-33.121l-.096-1.344c0-1.215.159-1.952.48-2.208.192-.127,9.504-.192,27.937-.192h27.551v.384c0,.064.447,3.777,1.344,11.136.896,7.36,1.344,11.073,1.344,11.136v.384h-3.84v-.384c-.896-6.144-2.352-10.512-4.367-13.104-2.016-2.592-5.744-4.176-11.184-4.752-2.496-.255-7.938-.384-16.32-.384h-10.08l9.984,13.728c1.535,2.112,3.168,4.384,4.896,6.816,1.727,2.433,3.006,4.257,3.84,5.472l1.344,1.728c.254.449.287.802.096,1.057l-23.52,26.88c16.19,0,24.959-.031,26.303-.096,3.904-.192,6.848-.576,8.832-1.152,1.984-.575,3.744-1.632,5.281-3.168,2.432-2.559,3.998-6.782,4.703-12.672,0-.192.016-.415.049-.672.031-.255.078-.447.143-.576v-.288h3.84v.385Z"/></svg>